<?xml version="1.0" encoding="utf-8"?>
<!-- Generator: Adobe Illustrator 27.5.0, SVG Export Plug-In . SVG Version: 6.00 Build 0)  -->
<svg version="1.1" xmlns="http://www.w3.org/2000/svg" xmlns:xlink="http://www.w3.org/1999/xlink" x="0px" y="0px"
	 viewBox="0 0 1100 800" style="enable-background:new 0 0 1100 800;" xml:space="preserve">
<g id="background">
	<rect style="fill:#FFFFFF;" width="1100" height="800"/>
</g>
<g id="shadow">
	<g>
		<path style="fill:#F1F2F2;" d="M521.964,644.118c-28.193,0.084-56.385,0.762-84.528,3.892c-10.611,1.18-21,3.776-31.635,4.823
			c-21.244,2.092-42.107,5.993-63.426,7.793c-17.168,1.449-34.408,2.305-51.526,4.143c-16.049,1.724-33.816,1.326-49.742-1.522
			c-11.79-2.109-23.633-3.296-35.225-6.682c-12.967-3.789-27.055-6.498-40.565-6.4c-19.266,0.139-38.028,0.155-56.466,6.845
			c-6.472,2.348-14.395,6.209-19.31,11.137c-11.251,11.282-12.774,39.432-1.54,51.133c18.921,19.693,59.305,27.42,85.827,27.785
			c29.063,0.4,57.296-1.758,86.401-3.026c27.045-1.179,54.023-2.856,81.113-2.797c55.328,0.121,110.664,0,165.893-3.696
			c51.888-3.472,103.907-2.28,155.909-2.28c53.326,0,106.291,0.419,159.233,7.506c23.067,3.088,46.568,4.169,69.75,6.332
			c20.762,1.938,40.714-0.038,61.394-1.829c17.365-1.504,34.616-5.964,50.391-13.503c12.487-5.968,34.749-24.507,38.579-38.752
			c10.736-39.935-151.3-38.975-176.179-38.885c-27.831,0.101-55.884,1.016-83.693-0.045c-11.698-0.446-23.224-2.733-34.641-5.238
			c-11.372-2.495-22.83-1.861-34.362-2.91c-48.092-4.374-96.291-3.734-144.536-3.734
			C553.379,644.209,537.671,644.071,521.964,644.118z"/>
	</g>
</g>
<g id="object">
	<g>
		<g>
			<path style="fill:#EAC5B0;" d="M365.33,346.088c-0.28,0.029-0.556,0.078-0.829,0.155c-2.539,0.72-3.067,3.303-5.062,4.537
				c-0.889,0.55-3.985,0.104-3.665,1.808c0.124,0.628,0.357,2.778,0.726,4.921c-0.354,1.773-0.629,3.566-1.148,5.298
				c-1.315,4.384-9.257,12.093-4.689,16.408c0.884,0.835,1.793,1.687,2.912,2.161c0.915,0.388,1.921,0.502,2.912,0.566
				c0.773,0.05,1.987,0.313,2.556-0.183c0.597-0.521,0.941-2.488,1.229-3.249c0.823-2.174,1.646-4.348,2.47-6.522
				c0.807-2.133,1.958-4.569,4.196-5.006c0.49-0.096,1.002-0.083,1.474-0.244c0.533-0.182,0.967-0.569,1.374-0.957
				c1.491-1.424,2.906-3.004,4.029-4.741c2.007-3.108-0.281-8.434-1.346-11.507c-0.265-0.765-0.565-1.549-1.136-2.123
				c-0.929-0.934-2.352-1.116-3.663-1.247C366.893,346.084,366.101,346.008,365.33,346.088z"/>
			<path style="fill:#D1E7F5;" d="M335.305,421.885c9.862-8.258,18.582-17.87,25.868-28.47c2.818-4.1,8.216-9.935,5.807-15.185
				c-2.471-5.385-13.92-8.229-19.065-9.373c-8.948,15.04-24.329,41.927-45.656,26.789c-5.565-3.95-9.651-10.693-16.387-11.792
				c-4.256-0.695-8.686,1.246-11.594,4.43c-11.364,12.445-0.593,27.253,9.244,36.514c10.4,9.793,27.104,11.751,39.89,5.354
				c3.813-1.908,7.261-4.47,10.564-7.167C334.421,422.621,334.864,422.254,335.305,421.885z"/>
		</g>
		<g>
			<g id="XMLID_6_">
				<g id="XMLID_8_">
					<ellipse id="XMLID_9_" style="fill:#7DB5DB;" cx="269.403" cy="171.221" rx="71.375" ry="71.659"/>
				</g>
			</g>
			<g>
				<path style="fill:#FFFFFF;" d="M304.618,186.353c-5.566,0-10.382,3.273-12.622,7.994l-30.154-4.086
					c-0.237-5.471-2.675-10.38-6.45-13.865l17.048-24.625c1.997,0.849,4.191,1.319,6.494,1.319c9.178,0,16.646-7.463,16.646-16.635
					c0-9.173-7.467-16.635-16.646-16.635c-9.178,0-16.646,7.463-16.646,16.635c0,3.926,1.369,7.538,3.653,10.386l-17.547,25.345
					c-2.075-0.726-4.303-1.122-6.622-1.122c-11.078,0-20.09,9.007-20.09,20.077c0,11.071,9.012,20.077,20.09,20.077
					c8.454,0,15.705-5.247,18.666-12.653l30.424,4.122c1.135,6.561,6.871,11.568,13.756,11.568c7.698,0,13.96-6.259,13.96-13.952
					S312.316,186.353,304.618,186.353z"/>
			</g>
		</g>
		<g>
			<path style="fill:#EAC5B0;" d="M649.452,360.335c0.265-0.073,0.534-0.126,0.81-0.152c2.568-0.243,3.964,1.922,6.217,2.34
				c1.005,0.186,3.667-1.317,3.979,0.349c0.11,0.616,0.659,2.657,1.081,4.739c0.95,1.49,1.835,3.026,2.922,4.42
				c2.75,3.527,12.714,7.737,10.082,13.285c-0.509,1.073-1.036,2.171-1.887,3c-0.696,0.678-1.571,1.138-2.452,1.547
				c-0.686,0.319-1.699,0.989-2.393,0.738c-0.728-0.263-1.738-1.933-2.27-2.524c-1.52-1.689-3.039-3.378-4.559-5.066
				c-1.491-1.657-3.401-3.469-5.594-3.074c-0.48,0.086-0.942,0.279-1.429,0.299c-0.549,0.023-1.082-0.175-1.59-0.385
				c-1.862-0.769-3.71-1.707-5.349-2.892c-2.928-2.12-2.73-7.781-2.849-10.958c-0.03-0.791-0.034-1.611,0.283-2.336
				c0.515-1.18,1.747-1.85,2.895-2.433C648.027,360.885,648.722,360.535,649.452,360.335z"/>
			<path style="fill:#7DB5DB;" d="M705.049,421.945c-2.848-0.216-5.735-0.441-8.424-1.403c-2.144-0.767-4.096-1.98-5.998-3.232
				c-11.794-7.763-22.369-17.374-31.219-28.376c3.671-5.536,8.449-10.334,13.97-14.027c9.141,7.142,18.851,13.555,29.009,19.158
				c2.077,1.146,4.202,2.269,6.51,2.82c3.325,0.795,6.805,0.355,10.194-0.089c13.144-1.721,26.288-3.442,39.433-5.162
				c7.93-1.038,16.156-2.054,23.795,0.315c21.182,6.57,16.011,34.138-4.618,35.734C754.537,429.475,728.279,423.71,705.049,421.945z
				"/>
		</g>
		<g>
			<path style="fill:#3B455A;" d="M257.866,701.941l-0.5,5.795l-3.825,4.712c0,0-1.098,7.07,0.993,8.312
				c2.091,1.242,34.726,5.116,34.726,5.116l3.363-5.017l-2.697-5.54l-17.249-7.89l-5.925-6.579L257.866,701.941z"/>
			<path style="fill:#3B455A;" d="M291.983,689.423l-0.5,5.795l-3.77,4.717c0,0-1.09,7.07,0.965,8.309
				c2.056,1.239,34.16,5.067,34.16,5.067l3.316-5.021l-2.646-5.535l-16.961-7.865l-5.82-6.57L291.983,689.423z"/>
			<g>
				<path style="fill:#BCBEC0;" d="M252.716,588.296c2.802,5.896,5.325,11.244,5.782,18.837c0.449,7.469-0.948,14.906-2.006,22.312
					c-3.663,25.632-3.303,51.647-2.936,77.536c8.931,0.388,17.87,0.574,26.809,0.556c1.52-0.003,3.233-0.094,4.245-1.229
					c1.014-1.137,0.906-2.853,0.737-4.368c-2.05-18.395-1.908-37.004-1.63-55.484c0.137-9.102,0.45-16.884,2.315-25.668
					c1.853-8.727,1.523-17.767,0.924-26.611c-1.466-21.66-5.854-42.918-7.063-64.569c-0.219-3.927-0.591-8.148-3.132-11.149
					c-3.055-3.608-8.293-4.345-13.021-4.343c-12.999,0.007-27.667,2.057-28.321,17.82c-0.218,5.255,1.167,10.433,2.637,15.483
					c3.369,11.57,7.031,23.253,11.698,34.374C250.723,584.108,251.737,586.235,252.716,588.296z"/>
				<path style="fill:#BCBEC0;" d="M288.958,578.342c2.671,6.027,5.076,11.493,5.169,19.1c0.092,7.481-1.775,14.841-3.281,22.186
					c-5.211,25.419-6.171,51.421-7.116,77.297c9.464,0.829,18.948,1.455,28.441,1.879c1.614,0.072,3.438,0.065,4.571-1.018
					c1.135-1.086,1.109-2.805,1.008-4.326c-1.529-22.986-3.252-46.045-1.634-69.023c0.619-8.794,1.727-17.555,2.222-26.356
					c0.965-17.14-0.413-34.299-2.502-51.324c-1.287-10.486,0.536-32.935-10.074-39.283c-4.803-2.874-10.876-3.298-16.492-2.439
					c-2.864,0.439-5.723,1.208-8.144,2.711c-4.665,2.896-7.131,8.213-7.633,13.451c-0.503,5.238,0.701,10.479,2.002,15.595
					c2.981,11.722,6.268,23.571,10.65,34.91C287.058,574.061,288.024,576.236,288.958,578.342z"/>
				<path style="fill:#D1E7F5;" d="M248.528,382.192c-8.074,6.023-13.417,16.412-14.076,27.194
					c-0.801,13.089-4.207,26.243-5.34,39.384c-2.238,25.966-1.675,52.096,1.421,77.968c0.343,2.864,0.871,6.061,3.199,7.763
					c2.635,1.928,6.299,1.053,9.432,0.131c24.639-7.251,49.884-12.439,75.385-15.492c1.528-0.182-4.998-61.609-5.666-67.232
					c-2.379-20.022-6.128-40.819-18.88-57.203c-5.389-6.923-12.182-13.035-20.416-16.063
					C264.073,375.142,255.331,377.117,248.528,382.192z"/>
				<g>
					<path style="fill:#EAC5B0;" d="M285.37,340.346c0.333,5.284,0.59,10.92-2.052,15.508c-2.25,3.909-6.257,6.428-9.335,9.726
						c-1.875,2.009-3.434,4.623-3.785,7.389c-0.346,2.73,1.121,5.058,1.104,7.79c-0.002,0.256-0.012,0.522-0.133,0.747
						c-0.129,0.241-0.366,0.405-0.606,0.535c-1.234,0.67-2.704,0.694-4.108,0.702c-1.659,0.01-3.471,0.232-5.115,0.03
						c-2.15-0.263-1.713-0.697-1.916-2.888c-0.302-3.267-0.744-6.547-1.799-9.667c-2.175-6.438-6.806-11.939-8.118-18.687
						c-1.452-7.466,0.718-14.783,3.086-21.883c1.059-3.176,2.222-6.413,4.399-8.957c4.784-5.589,16.003-7.374,21.363-1.664
						C284.726,325.815,284.804,331.379,285.37,340.346z"/>
					<path style="fill:#3B455A;" d="M283.674,336.723c3.474,4.761,4.039,11.482,1.408,16.756c4.037-2.817,5.936-7.835,6.75-12.69
						c0.447-2.67,0.636-5.399,0.329-8.089c-0.968-8.494-7.701-16.343-16.175-17.471c-5.605-0.746-5.583,6.4-3.398,9.877
						C275.461,329.679,280.515,332.392,283.674,336.723z"/>
					<path style="fill:#3B455A;" d="M268.83,310.789c-3.14-1.503-6.768-1.59-10.237-1.293c-4.753,0.406-14.315,1.81-19.962,5.351
						c-3.184-6.809-12.375-11.956-19.082-8.424c-3.928,2.069-5.627,6.565-3.814,10.089c0.453,0.88,1.099,1.699,1.94,2.361
						c0.705,0.555,1.546,1,2.148,1.631c2.283,2.391,0.171,5.784-1.509,8.488c-1.897,3.054-3.197,6.355-3.838,9.74
						c-0.362,1.91-0.501,3.924,0.374,5.719c0.875,1.795,3.001,3.3,5.357,3.198c4.266-0.184,5.126-3.818,5.347-7.121
						c0.254-3.803,0.895-7.14,2.62-10.684c0.632-1.298,1.496-2.666,2.891-3.038c0.267-0.071,0.535-0.098,0.804-0.097
						c-0.938,3.177-1.446,6.396-0.952,9.932c0.983,7.047,3.59,13.919,7.904,19.577c4.315,5.658,10.377,10.05,17.232,11.956
						c0.485-4.337-4.089-7.621-4.921-11.904c-0.451-2.319,0.263-4.743,1.477-6.769c1.214-2.027,2.898-3.723,4.564-5.397
						c2.873-2.886,5.747-5.771,8.62-8.657c2.344-2.354,4.71-4.736,6.462-7.559C275.818,322.147,275.652,314.055,268.83,310.789z"/>
				</g>
			</g>
		</g>
		<g>
			<circle style="fill:#305399;" cx="515.369" cy="264.389" r="169.215"/>
			<g>
				<g>
					<g>
						<path style="fill:#FFFFFF;" d="M651.183,205.889c-7.424-17.897-18.051-33.968-31.586-47.768
							c-13.535-13.799-29.297-24.635-46.851-32.204c-18.177-7.839-37.482-11.813-57.377-11.813c-19.896,0-39.2,3.975-57.377,11.813
							c-17.553,7.57-33.316,18.405-46.85,32.204c-13.535,13.8-24.162,29.871-31.586,47.768
							c-7.688,18.533-11.587,38.215-11.587,58.501s3.898,39.967,11.587,58.5c7.424,17.897,18.051,33.968,31.586,47.768
							c13.535,13.799,29.297,24.635,46.85,32.204c18.177,7.839,37.482,11.813,57.377,11.813c19.896,0,39.2-3.975,57.377-11.813
							c17.553-7.57,33.316-18.405,46.851-32.204c13.534-13.8,24.162-29.871,31.586-47.768c7.688-18.533,11.587-38.215,11.587-58.5
							S658.872,224.422,651.183,205.889z M647.935,264.389c0,11.061-1.297,21.918-3.812,32.393h-44.306
							c2.654-12.181,3.991-24.559,3.991-37.026c0-11.731-1.185-23.246-3.535-34.458h42.061
							C646.024,237.814,647.935,250.952,647.935,264.389z M609.108,168.815c11.881,12.114,21.227,26.123,27.771,41.358h-40.545
							c-1.484-4.752-3.185-9.44-5.107-14.055c-6.662-15.995-15.938-31.137-27.571-45.004c-6.019-7.175-12.028-13.249-17.501-18.245
							C569.8,138.576,591.495,150.858,609.108,168.815z M522.786,133.077c6.947,5.085,18.264,14.358,29.597,27.868
							c10.646,12.691,19.121,26.515,25.19,41.085c1.119,2.687,2.155,5.403,3.11,8.143h-57.897V133.077z M585.065,225.298
							c2.598,11.169,3.91,22.691,3.91,34.458c0,12.475-1.473,24.861-4.391,37.026h-61.797v-71.484H585.065z M443.726,259.756
							c0-11.767,1.311-23.289,3.909-34.458h60.317v71.484h-59.834C445.2,284.617,443.726,272.232,443.726,259.756z M507.952,134.557
							v75.617h-55.935c0.919-2.635,1.911-5.247,2.981-7.832c6.011-14.524,14.413-28.312,24.972-40.981
							C490.357,148.898,500.847,139.951,507.952,134.557z M421.631,168.815c18.262-18.619,40.914-31.136,65.576-36.548
							c-5.648,5.107-11.901,11.381-18.164,18.847c-11.633,13.867-20.909,29.009-27.571,45.004
							c-1.922,4.615-3.623,9.303-5.107,14.055H393.86C400.404,194.939,409.75,180.929,421.631,168.815z M388.404,225.298h44.023
							c-2.35,11.211-3.535,22.727-3.535,34.458c0,12.467,1.338,24.845,3.991,37.026h-46.268
							c-2.516-10.475-3.812-21.333-3.812-32.393C382.803,250.952,384.715,237.814,388.404,225.298z M421.631,359.963
							c-13.603-13.869-23.884-30.223-30.439-48.056h45.698c1.344,4.303,2.854,8.576,4.534,12.813
							c6.622,16.698,15.84,32.859,27.399,48.034c7.551,9.913,15.081,18.077,21.54,24.408
							C464.478,392.151,440.669,379.374,421.631,359.963z M480.539,363.477c-10.72-14.074-19.253-29.021-25.362-44.426
							c-0.94-2.369-1.821-4.751-2.646-7.143h55.422v81.151C500.897,386.817,490.718,376.841,480.539,363.477z M522.786,394.755
							v-82.848h57.383c-0.792,2.298-1.636,4.587-2.535,6.864c-6.06,15.36-14.53,30.269-25.175,44.314
							C541.242,377.885,529.911,388.63,522.786,394.755z M609.108,359.963c-18.43,18.791-41.332,31.367-66.258,36.697
							c6.343-6.259,13.676-14.254,21.028-23.906c11.559-15.175,20.777-31.336,27.399-48.034c1.68-4.236,3.189-8.509,4.534-12.813
							h43.737C632.992,329.74,622.711,346.093,609.108,359.963z"/>
					</g>
				</g>
			</g>
		</g>
		<g>
			<g>
				<g>
					<path style="fill:#EAC5B0;" d="M877.859,699.149c-1.627,1.912-3.666,3.315-5.493,4.983
						c-6.649-5.451-12.727-10.971-18.115-17.824c4.955-0.587,5.936-4.883,11.65-0.303
						C867.75,687.488,874.664,697.04,877.859,699.149z"/>
					<path style="fill:#3B455A;" d="M868.351,701.503c-1.247,0.959-1.352,2.099-1.35,3.498c0.001,0.812,0.3,1.636,0.103,2.435
						c-0.197,0.799-0.618,1.375-1.133,2.069c-2.712,3.653-9.874,11.236-0.535,12.227c8.48,0.899,15.48-10.85,19.312-17.831
						c0.252-0.459,0.557-0.908,0.517-1.449c-0.04-0.541-0.286-1.105-0.609-1.614c-1.797-2.831-3.97-6.444-7.651-4.417
						c-1.57,0.865-1.792,2.777-3.462,3.686C872.175,700.851,869.598,700.544,868.351,701.503z"/>
				</g>
				<path style="fill:#587BC9;" d="M842.271,557.701c1.063,16.86-13.876,41.525-9.569,55.269
					c9.009,28.751,18.457,45.183,34.896,67.958c1.175,1.628,5.064,5.267,6.739,7.326c-4.023,5.255-8.684,8.942-13.886,13.373
					c-24.095-20.554-45.598-33.851-61.156-65.261c-12.298-24.83-16.627-65.137-23.03-94.426c-1.061-4.851-2.671-11.844,0.539-16.259
					c2.462-3.386,5.935-4.865,10.332-5.93c11.766-2.849,27.855-9.015,38.901-1.586C838.112,526.287,841.455,544.747,842.271,557.701
					z"/>
			</g>
			<g>
				<g>
					<path style="fill:#EAC5B0;" d="M732.29,714.752c-2.536,0.523-5.09,0.268-7.629,0.545c-2.038-8.844-3.645-17.515-3.756-26.719
						c4.458,2.922,7.835,0.177,9.549,7.697C731.008,698.709,730.88,710.946,732.29,714.752z"/>
					<path style="fill:#3B455A;" d="M723.054,710.576c-1.588,0.001-2.379,0.925-3.256,2.013c-0.509,0.631-0.757,1.527-1.352,2.083
						c-0.595,0.556-1.308,0.726-2.154,0.936c-4.456,1.104-14.858,2.683-8.071,9.291c6.163,6.001,18.956,1.088,26.36-2.016
						c0.487-0.204,1.024-0.375,1.343-0.824c0.32-0.449,0.459-1.064,0.53-1.659c0.394-3.313,0.932-7.701-3.235-8.404
						c-1.777-0.3-3.267,1.076-5.17,0.737C726.49,712.453,724.641,710.575,723.054,710.576z"/>
				</g>
				<path style="fill:#587BC9;" d="M798.571,581.643c-12.195,12.176-47.098,21.115-52.777,35.132
					c-2.278,5.622-9.774,47.204-10.915,76.48c-0.082,2.092,0.876,7.547,0.898,10.312c-6.504,1.865-12.352,1.474-19.362,1.966
					c-5.122-33.734-10.431-92.812-10.431-92.812c6.937-29.503,40.419-63.336,58.998-89.916c3.077-4.403,6.676-10.432,12.2-11.173
					c4.236-0.568,7.581,0.929,11.389,3.406c10.191,6.627,25.782,14.01,28.04,27.213
					C819.081,556.684,807.942,572.287,798.571,581.643z"/>
			</g>
			<path style="fill:#7DB5DB;" d="M793.329,398.639c11.209,9.845,20.521,23.797,27.08,39.041
				c11.616,26.995,16.06,57.859,20.341,88.124c1.425,10.072,2.849,20.145,4.275,30.217c1.402,9.91,1.053,12.21-7.062,12.938
				c-15.038,1.35-30.894,1.155-45.449-4.301c-6.926-2.596-13.592-6.41-20.701-8.03c-10.34-2.356-19.947,2.377-29.949,1.685
				c1.041-10.584,3.403-20.612,3.636-31.495c0.234-10.894-0.456-21.791-1.41-32.61c-1.668-18.907-2.538-37.904-4.094-56.767
				c-1.115-13.51-3.924-24.089,5.292-35.503c5.017-6.214,14.215-17.004,22.534-16.858
				C776.649,385.234,787.064,393.136,793.329,398.639z"/>
			<g>
				<path style="fill:#EAC5B0;" d="M744.336,380.943c3.074,2.905,6.943,4.798,10.439,7.178c3.402,2.316,5.325,4.878,7.376,8.33
					c1.481,2.493,3.272,4.185,6.656,3.344c6.384-1.586,2.638-5.875,2.541-10.058c-0.111-4.782,1.904-9.412,2.741-14.059
					c2.419-13.429-8.066-33.792-23.921-32.625C732.835,344.33,735.007,372.128,744.336,380.943z"/>
			</g>
			<path style="fill:#3B455A;" d="M764.975,357.808c1.737,1.121,2.694,3.547,1.731,5.376c-0.516,0.979-1.47,1.657-2.061,2.593
				c-1.734,2.744,0.284,6.392,2.824,8.412c2.54,2.02,5.727,3.416,7.44,6.173c8.642-7.001,15.255-17.147,15.859-28.253
				c0.436-8.015-2.755-16.366-8.723-21.794c-7.005-6.371-14.09-6.021-23.207-6.798c-3.753-0.32-7.614-0.63-11.218,0.465
				c-3.282,0.997-6.133,3.098-9.383,4.195c-5.381,1.817-12.216,1.158-15.683,5.657c-2.005,2.603-2.127,6.301-1.018,9.394
				c1.109,3.093,3.285,5.682,5.591,8.022c3.104,3.15,6.527,5.987,10.199,8.451c-1.744-1.171,4.299-7.909,5.676-8.204
				c3.252-0.699,8.403,2.996,11.735,3.791C757.944,356.053,762.135,355.977,764.975,357.808z"/>
		</g>
		<g>
			<g>
				<polygon style="fill:#3B455A;" points="528.37,345.497 580.971,563.127 623.708,520.102 674.517,586.388 698.768,567.799 
					723.019,549.21 672.21,482.924 724.861,452.833 				"/>
				<path style="fill:#FFFFFF;" d="M726.402,545.786c-5.715-7.456-11.431-14.913-17.146-22.369
					c-9.118-11.895-18.235-23.79-27.353-35.685c-1.602-2.09-3.204-4.18-4.806-6.27c14.706-8.405,29.411-16.81,44.117-25.214
					c2.195-1.255,4.391-2.51,6.586-3.764c1.568-0.896,0.841-3.075-0.429-3.769c-6.527-3.565-13.053-7.131-19.58-10.695
					c-15.669-8.56-31.337-17.119-47.006-25.678c-18.883-10.315-37.766-20.63-56.648-30.945c-16.33-8.921-32.66-17.841-48.99-26.761
					c-5.42-2.961-10.841-5.922-16.261-8.883c-2.538-1.387-5.047-2.958-7.666-4.188c-0.116-0.055-0.227-0.124-0.339-0.185
					c-0.845-0.462-1.601-0.293-2.139,0.174c-0.713,0.338-1.181,1.048-0.93,2.084c1.747,7.229,3.494,14.458,5.241,21.686
					c4.195,17.355,8.389,34.709,12.584,52.063c5.055,20.914,10.11,41.828,15.165,62.743c4.372,18.087,8.743,36.174,13.115,54.26
					c2.135,8.834,4.246,17.674,6.405,26.502c0.031,0.125,0.061,0.251,0.091,0.376c0.464,1.922,2.492,2.538,3.901,1.119
					c12.464-12.547,24.927-25.095,37.391-37.643c1.135-1.143,2.27-2.286,3.405-3.428c5.203,6.788,10.406,13.576,15.609,20.364
					c9.118,11.895,18.235,23.79,27.353,35.685c2.103,2.744,4.207,5.488,6.31,8.232c0.715,0.933,2.122,1.174,3.075,0.443
					c12.872-9.867,25.745-19.734,38.617-29.601c3.295-2.526,6.59-5.051,9.885-7.577
					C726.892,548.146,727.132,546.739,726.402,545.786z M684.71,574.943c-2.721,2.085-5.441,4.171-8.162,6.256
					c-5.265-6.868-10.53-13.737-15.794-20.606c-9.118-11.895-18.235-23.79-27.353-35.684c-2.103-2.744-4.207-5.488-6.31-8.232
					c-0.934-1.219-2.488-1.048-3.478-0.052c-12.464,12.548-24.927,25.096-37.391,37.643c-0.809,0.814-1.617,1.628-2.426,2.442
					c-1.42-5.876-2.84-11.751-4.26-17.627c-4.195-17.354-8.389-34.709-12.584-52.063c-5.055-20.914-10.11-41.829-15.165-62.743
					c-4.371-18.087-8.743-36.174-13.115-54.26c-1.8-7.447-3.588-14.897-5.397-22.341c5.137,2.806,10.274,5.612,15.411,8.418
					c15.669,8.559,31.337,17.118,47.006,25.678c18.883,10.315,37.766,20.63,56.648,30.945c16.33,8.92,32.66,17.841,48.99,26.761
					c5.42,2.961,10.841,5.922,16.261,8.883c1.39,0.759,2.809,1.67,4.254,2.503c-14.247,8.143-28.495,16.285-42.742,24.428
					c-2.195,1.255-4.391,2.51-6.586,3.764c-1.024,0.585-1.095,2.225-0.443,3.075c5.716,7.457,11.431,14.913,17.146,22.369
					c9.118,11.895,18.235,23.79,27.353,35.685c1.663,2.17,3.326,4.34,4.989,6.509C709.278,556.111,696.994,565.527,684.71,574.943z"
					/>
			</g>
		</g>
		<g>
			<path style="fill:#EAC5B0;" d="M648.663,519.279c0.073-0.265,0.166-0.523,0.285-0.773c1.109-2.329,3.684-2.416,5.199-4.135
				c0.676-0.767,0.751-3.823,2.341-3.236c0.585,0.222,2.619,0.798,4.622,1.504c1.766-0.051,3.539-0.022,5.293-0.24
				c4.439-0.55,13.165-6.942,16.576-1.835c0.66,0.988,1.332,2.003,1.607,3.159c0.224,0.945,0.17,1.932,0.069,2.898
				c-0.078,0.753-0.023,1.966-0.594,2.433c-0.6,0.49-2.551,0.5-3.331,0.653c-2.229,0.438-4.459,0.875-6.688,1.313
				c-2.187,0.429-4.722,1.139-5.51,3.224c-0.172,0.456-0.244,0.951-0.476,1.38c-0.262,0.483-0.706,0.839-1.147,1.167
				c-1.616,1.204-3.369,2.309-5.227,3.107c-3.322,1.425-8.08-1.65-10.867-3.179c-0.694-0.381-1.4-0.798-1.86-1.442
				c-0.748-1.047-0.691-2.448-0.602-3.733C648.404,520.784,648.46,520.008,648.663,519.279z"/>
			<path style="fill:#7DB5DB;" d="M730.073,503.178c-1.647,2.333-3.322,4.696-5.527,6.51c-1.758,1.446-3.802,2.5-5.852,3.49
				c-12.715,6.139-26.391,10.283-40.376,12.232c-2.867-5.992-4.533-12.555-4.87-19.189c10.821-4.18,21.308-9.223,31.329-15.066
				c2.049-1.195,4.104-2.442,5.761-4.14c2.388-2.446,3.796-5.658,5.155-8.795c5.268-12.164,10.537-24.329,15.805-36.493
				c3.179-7.339,6.528-14.921,12.482-20.261c16.509-14.808,37.516,3.777,28.3,22.301
				C761.932,464.567,743.509,484.145,730.073,503.178z"/>
		</g>
		<g>
			<circle style="fill:#587BC9;" cx="775.51" cy="160.583" r="88.317"/>
			<g>
				<g>
					<path style="fill:#FFFFFF;" d="M837.39,149.202c-6.545-11.242-20.025-16.57-32.308-13.187
						c-0.023,0.006-0.046,0.007-0.068,0.011c-3.776,1.408-6.93,4.142-8.288,8.456c-0.298,0.948-1.758,0.542-1.458-0.412
						c1.455-4.624,4.722-7.632,8.68-9.256c-4.326-13.975-17.498-23.873-31.969-22.772c-14.242,1.083-25.813,12.177-28.566,26.408
						c1.197,0.291,2.372,0.695,3.511,1.227c4.529,2.117,8.044,5.766,10.547,10.136c0.495,0.864-0.812,1.645-1.305,0.783
						c-0.823-1.438-1.781-2.797-2.867-4.038c-4.031-4.609-9.792-7.354-15.865-7.076c-6.136,0.281-12.749,3.644-16.88,8.245
						c-4.734,5.273-7.287,12.403-6.655,19.587c0.62,7.051,4.196,13.625,9.738,17.863c5.14,3.931,11.119,5.718,17.472,5.966
						c4.166,0.163,8.337,0.224,12.505,0.281c11.915,0.166,23.832,0.214,35.749,0.246c5.235,0.014,10.47,0.022,15.706,0.026
						c4.3,0.003,8.826,0.356,13.063-0.482c13.854-2.74,24.34-15.772,22.959-30.463C840.707,156.678,839.436,152.715,837.39,149.202z
						"/>
				</g>
			</g>
		</g>
		<g>
			
				<ellipse transform="matrix(0.7071 -0.7071 0.7071 0.7071 -223.7761 430.5595)" style="fill:#587BC9;" cx="407.843" cy="485.401" rx="67.264" ry="67.264"/>
			<path style="fill:#FFFFFF;" d="M455.715,462.23c-2.579-4.489-7.445-7.217-12.59-7.276c-1.151-0.013-2.303,0-3.455,0
				c-5.991,0-11.983,0-17.974,0c-4.482,0-8.965-0.017-13.448,0c-4.032,0.015-8.008,1.576-10.775,4.56
				c-2.691,2.901-3.872,6.504-3.945,10.387c-2.427,0-4.854,0-7.281,0c-4.482,0-8.965-0.017-13.447,0
				c-4.032,0.015-8.008,1.576-10.776,4.56c-2.779,2.996-3.959,6.738-3.959,10.766c0,2.906,0,5.813,0,8.719
				c0,2.627-0.191,5.365,0.434,7.938c1.218,5.02,5.303,9.142,10.276,10.487c1.919,0.519,3.845,0.506,5.804,0.506
				c10.736,0,21.473,0,32.209,0c0.297,0,0.594,0,0.891,0c5.266-0.07,10.32-2.937,12.794-7.651c0.861-1.642,1.291-3.314,1.51-5.029
				l0.007,0.002l0.004-0.094c0.088-0.717,0.143-1.442,0.171-2.175c0.486,0,0.973,0,1.46,0c6.204,0,12.408,0,18.612,0
				c0.297,0,0.594,0,0.891,0c5.266-0.07,10.32-2.937,12.794-7.651c1.561-2.974,1.73-6.044,1.73-9.299c0-3.108,0-6.217,0-9.325
				C457.65,468.348,457.415,465.191,455.715,462.23z M408.81,476.504c0.026,0.006,0.052,0.011,0.084,0.018
				c0.383,0.082,0.762,0.163,1.137,0.275c0.185,0.056,0.366,0.125,0.551,0.18c0.063,0.019,0.113,0.033,0.154,0.044
				c0.034,0.019,0.076,0.041,0.126,0.067c0.424,0.221,0.843,0.435,1.246,0.695c0.049,0.031,0.394,0.28,0.46,0.318
				c0.078,0.065,0.158,0.129,0.234,0.196c0.461,0.406,0.886,0.85,1.275,1.325c0.006,0.008,0.01,0.012,0.016,0.018
				c0.019,0.033,0.041,0.07,0.067,0.114c0.146,0.245,0.311,0.476,0.453,0.724c0.106,0.184,0.567,1.226,0.446,0.872
				c0.153,0.421,0.29,0.846,0.396,1.282c0.048,0.197,0.088,0.395,0.125,0.594c-0.012-0.023,0.053,0.474,0.059,0.59
				c0.111,2.082,0.016,4.189,0.016,6.272c0,0.432,0,0.863,0,1.295c-0.223,0-0.447,0-0.67,0c-0.123,0-0.246,0-0.369,0
				c-1.896,0-3.792,0-5.689,0c-0.296,0-0.593,0.003-0.889,0c-0.346-0.004-0.69-0.021-1.035-0.051
				c0.168-0.001-0.847-0.169-1.042-0.221c-0.281-0.076-0.552-0.177-0.831-0.26c-0.044-0.013-0.079-0.023-0.113-0.033
				c-0.012-0.006-0.022-0.011-0.038-0.018c-0.566-0.265-1.078-0.592-1.613-0.911c-0.042-0.025-0.135-0.092-0.196-0.136
				c-0.161-0.133-0.319-0.271-0.472-0.412c-0.348-0.323-0.661-0.671-0.975-1.026c-0.036-0.04-0.065-0.073-0.091-0.1
				c-0.021-0.038-0.046-0.082-0.082-0.142c-0.097-0.162-0.21-0.317-0.308-0.478c-0.148-0.244-0.288-0.493-0.417-0.747
				c-0.06-0.118-0.115-0.239-0.171-0.359c-0.005-0.014-0.01-0.026-0.016-0.043c-0.177-0.505-0.336-1.011-0.448-1.535
				c-0.021-0.1-0.038-0.2-0.056-0.301c0.007-0.017-0.058-0.528-0.062-0.598c-0.017-0.318-0.015-0.634-0.016-0.952
				c-0.005-2.206-0.001-4.411,0-6.616c1.912,0,3.824,0,5.736,0c0.544,0,1.089-0.002,1.633,0c0.081,0,0.162-0.001,0.243,0
				C408.052,476.45,408.43,476.469,408.81,476.504z M415.62,499.261c-0.001,0.039-0.002,0.072-0.003,0.104
				c-0.004,0.017-0.008,0.036-0.012,0.06c-0.117,0.629-0.299,1.222-0.481,1.834c-0.013,0.043-0.048,0.133-0.076,0.202
				c-0.093,0.199-0.19,0.396-0.295,0.589c-0.184,0.34-0.391,0.662-0.606,0.981c-0.014,0.008-0.296,0.395-0.344,0.449
				c-0.125,0.141-0.253,0.28-0.385,0.415c-0.198,0.203-0.403,0.398-0.615,0.585c-0.086,0.076-0.176,0.149-0.265,0.222
				c-0.02,0.014-0.043,0.031-0.076,0.054c-0.436,0.291-0.875,0.568-1.342,0.806c-0.089,0.045-0.181,0.086-0.272,0.13
				c-0.054,0.013-0.481,0.182-0.54,0.202c-0.466,0.152-0.937,0.258-1.414,0.362c-0.065,0.014-0.117,0.026-0.159,0.037
				c-0.041,0-0.091,0.001-0.15,0.003c-0.303,0.01-0.604,0.032-0.908,0.036c-9.503,0-19.006,0-28.51,0c-1.896,0-3.793,0-5.689,0
				c-0.296,0-0.593,0.003-0.889,0c-0.346-0.004-0.69-0.021-1.035-0.051c0.168-0.001-0.847-0.169-1.042-0.221
				c-0.281-0.076-0.552-0.177-0.831-0.26c-0.044-0.013-0.079-0.023-0.113-0.033c-0.012-0.006-0.022-0.011-0.038-0.018
				c-0.566-0.265-1.078-0.592-1.613-0.911c-0.042-0.025-0.135-0.092-0.196-0.136c-0.161-0.133-0.319-0.27-0.472-0.412
				c-0.348-0.323-0.661-0.671-0.975-1.026c-0.036-0.04-0.065-0.073-0.091-0.1c-0.021-0.038-0.046-0.082-0.082-0.142
				c-0.097-0.162-0.21-0.317-0.308-0.479c-0.148-0.244-0.288-0.493-0.417-0.747c-0.06-0.118-0.115-0.239-0.171-0.359
				c-0.005-0.014-0.01-0.026-0.016-0.043c-0.178-0.505-0.336-1.011-0.448-1.535c-0.021-0.099-0.038-0.2-0.056-0.3
				c0.007-0.017-0.058-0.528-0.062-0.598c-0.017-0.318-0.015-0.634-0.016-0.952c-0.005-2.568,0-5.136,0-7.704
				c0-2.059-0.056-4.126,0.004-6.185c0.006-0.202,0.025-0.402,0.032-0.603c0.002-0.065,0.003-0.117,0.003-0.159
				c0.011-0.04,0.023-0.089,0.037-0.15c0.111-0.476,0.21-0.949,0.362-1.414c0.021-0.064,0.219-0.561,0.201-0.544
				c0.063-0.132,0.129-0.264,0.197-0.394c0.111-0.211,0.227-0.418,0.351-0.621c0.05-0.083,0.441-0.639,0.451-0.678
				c0.251-0.305,0.518-0.598,0.801-0.873c0.169-0.165,0.348-0.319,0.523-0.478c0.047-0.043,0.149-0.119,0.23-0.178
				c0.355-0.242,0.714-0.475,1.092-0.68c0.18-0.098,0.364-0.189,0.549-0.276c-0.048,0.034,0.546-0.198,0.654-0.231
				c0.46-0.144,0.929-0.255,1.403-0.34c0.067-0.009,0.142-0.018,0.182-0.019c0.303-0.01,0.604-0.033,0.908-0.036
				c0.07-0.001,0.141,0,0.211,0c0.523-0.002,1.046,0,1.568,0c2.206,0,4.411,0,6.617,0c4.176,0,8.353,0,12.529,0
				c0,0.046,0,0.092,0,0.139l-0.027,0.001v0.422l0.027,0.008c0,0.661,0,1.323,0,1.984c0,2.626-0.191,5.365,0.434,7.938
				c1.217,5.02,5.303,9.142,10.276,10.487c1.919,0.519,3.846,0.506,5.804,0.506c1.653,0,3.306,0,4.959,0c0.224,0,0.447,0,0.67,0
				c0,0.001,0,0.001,0,0.001c0,0.141,0.002,0.281,0,0.422C415.652,498.657,415.63,498.958,415.62,499.261z M451.105,475.143
				c0,2.614,0.004,5.228,0,7.841c0,0.141,0.002,0.281,0,0.422c-0.004,0.304-0.026,0.605-0.036,0.908
				c-0.001,0.039-0.002,0.072-0.003,0.104c-0.004,0.017-0.007,0.036-0.012,0.06c-0.117,0.629-0.299,1.222-0.481,1.834
				c-0.013,0.044-0.049,0.133-0.076,0.202c-0.093,0.199-0.19,0.396-0.294,0.589c-0.184,0.34-0.391,0.662-0.606,0.981
				c-0.014,0.009-0.296,0.395-0.344,0.449c-0.125,0.142-0.253,0.28-0.385,0.415c-0.198,0.203-0.403,0.398-0.615,0.585
				c-0.086,0.076-0.176,0.148-0.265,0.222c-0.02,0.014-0.043,0.03-0.076,0.054c-0.436,0.291-0.875,0.568-1.342,0.806
				c-0.089,0.045-0.181,0.086-0.272,0.129c-0.054,0.013-0.48,0.182-0.54,0.202c-0.466,0.152-0.937,0.258-1.414,0.362
				c-0.065,0.014-0.117,0.026-0.159,0.037c-0.041,0-0.09,0.001-0.15,0.003c-0.303,0.01-0.604,0.032-0.908,0.036
				c-6.501,0-13.002,0-19.503,0c-0.474,0-0.948,0-1.423,0c0-1.595,0-3.189,0-4.784c0-3.307-0.234-6.464-1.935-9.424
				c-2.579-4.489-7.445-7.217-12.59-7.276c-1.151-0.013-2.303,0-3.455,0c-1.388,0-2.776,0-4.164,0
				c0.004-0.242-0.001-0.486,0.006-0.728c0.006-0.202,0.025-0.402,0.032-0.603c0.002-0.065,0.003-0.117,0.003-0.159
				c0.011-0.04,0.023-0.089,0.037-0.15c0.111-0.476,0.21-0.949,0.362-1.414c0.021-0.064,0.219-0.561,0.201-0.544
				c0.063-0.132,0.128-0.264,0.197-0.394c0.111-0.211,0.227-0.418,0.35-0.621c0.05-0.083,0.441-0.639,0.451-0.678
				c0.251-0.305,0.518-0.598,0.8-0.873c0.169-0.165,0.348-0.319,0.523-0.478c0.047-0.043,0.15-0.119,0.23-0.178
				c0.355-0.242,0.714-0.475,1.092-0.68c0.18-0.098,0.364-0.189,0.55-0.276c-0.048,0.034,0.546-0.197,0.653-0.231
				c0.46-0.144,0.929-0.255,1.403-0.34c0.067-0.009,0.142-0.018,0.182-0.019c0.303-0.01,0.604-0.033,0.908-0.036
				c0.07-0.001,0.141,0,0.211,0c0.523-0.002,1.046,0,1.569,0c2.206,0,4.411,0,6.617,0c6.036,0,12.071,0,18.107,0
				c2.234,0,4.468,0,6.703,0c0.544,0,1.089-0.002,1.633,0c0.081,0,0.162-0.001,0.243,0c0.382,0.004,0.761,0.023,1.141,0.058
				c0.026,0.006,0.052,0.011,0.084,0.018c0.383,0.082,0.762,0.163,1.137,0.275c0.185,0.056,0.366,0.125,0.551,0.18
				c0.063,0.019,0.113,0.033,0.154,0.044c0.034,0.019,0.076,0.041,0.126,0.068c0.424,0.221,0.843,0.435,1.246,0.695
				c0.049,0.031,0.394,0.28,0.46,0.318c0.078,0.065,0.158,0.129,0.234,0.196c0.461,0.406,0.886,0.85,1.275,1.325
				c0.006,0.008,0.01,0.012,0.016,0.018c0.019,0.033,0.041,0.07,0.068,0.114c0.146,0.244,0.311,0.476,0.453,0.724
				c0.106,0.184,0.568,1.226,0.446,0.872c0.153,0.421,0.29,0.846,0.396,1.282c0.048,0.197,0.088,0.395,0.125,0.594
				c-0.012-0.023,0.053,0.474,0.059,0.59C451.2,470.953,451.105,473.06,451.105,475.143z"/>
		</g>
		<g>
			<circle style="fill:#D7E8F4;" cx="860.309" cy="303.18" r="41.663"/>
		</g>
		<g>
			<path style="fill:#EAC5B0;" d="M355.886,502.861c-0.04-0.272-0.1-0.54-0.187-0.802c-0.81-2.449-3.354-2.856-4.643-4.751
				c-0.575-0.845-0.269-3.886-1.92-3.502c-0.608,0.147-2.698,0.466-4.774,0.916c-1.746-0.271-3.509-0.463-5.222-0.898
				c-4.336-1.099-12.197-8.529-16.218-3.887c-0.778,0.898-1.571,1.821-1.988,2.934c-0.34,0.91-0.409,1.896-0.43,2.867
				c-0.016,0.757-0.222,1.953,0.287,2.488c0.534,0.561,2.469,0.814,3.224,1.063c2.158,0.712,4.315,1.424,6.472,2.136
				c2.116,0.698,4.544,1.719,5.065,3.885c0.114,0.474,0.123,0.974,0.301,1.428c0.2,0.512,0.596,0.92,0.992,1.301
				c1.453,1.396,3.055,2.71,4.799,3.734c3.119,1.828,8.222-0.63,11.179-1.799c0.736-0.291,1.489-0.617,2.025-1.199
				c0.873-0.946,0.991-2.343,1.063-3.629C355.956,504.387,355.996,503.61,355.886,502.861z"/>
			<path style="fill:#D1E7F5;" d="M277.117,476.74c1.343,2.52,2.71,5.073,4.673,7.148c1.564,1.654,3.461,2.954,5.372,4.192
				c11.851,7.676,24.904,13.492,38.537,17.169c3.592-5.588,6.063-11.892,7.224-18.432c-10.216-5.496-19.993-11.807-29.208-18.853
				c-1.885-1.441-3.768-2.935-5.201-4.826c-2.065-2.724-3.062-6.087-4.019-9.369c-3.711-12.726-7.423-25.453-11.134-38.179
				c-2.239-7.678-4.617-15.618-9.859-21.659c-14.535-16.75-37.694-0.928-30.859,18.6
				C250.319,434.459,266.158,456.181,277.117,476.74z"/>
		</g>
	</g>
</g>
</svg>
